<svg xmlns="http://www.w3.org/2000/svg" viewBox="0 0 224.113 200.749">
   <path fill="#c2122b" d="M220.363 87.264l-42.885-74.168C172.42 4.362 164.776 0 154.786 0H69.25C59.264 0 51.61 4.362 46.555 13.096L3.749 87.264c-5.031 8.746-4.974 17.555.026 26.201l42.78 74.188c5.057 8.735 12.71 13.096 22.695 13.096h85.537c9.99 0 17.635-4.361 22.692-13.096l42.857-74.188c5.004-8.646 5.058-17.455.03-26.201"/>
   <path fill="#fff" d="M169.19 117.857h-9.121v-14.969h6.353c8.797 0 12.38 2.185 12.38 8.066 0 5.05-3.422 6.903-9.612 6.903m-9.121-37.704h6.272c5.291 0 10.584.423 10.584 6.074 0 6.259-4.394 7.461-11.237 7.461h-5.62V80.153zm19.546 18.287v-2.11c7.655-.982 10.75-5.58 10.75-11.76 0-11.76-11.077-14.024-21.256-14.024h-22.478v57.217h21.828c11.482 0 24.27-1.66 24.27-16.433 0-8.592-6.68-12.061-13.114-12.89m-64.779 30.228c-7.082 0-13.273-.603-20.278-2.27v-10.359c6.19 1.292 10.751 1.97 16.941 1.97 6.272 0 12.299-.917 12.299-7.248 0-12.815-28.67-1.618-28.67-24.836 0-12.437 11.238-16.282 22.885-16.282 5.459 0 10.912.454 16.37 1.112v10.058c-4.968-.66-8.306-.962-13.272-.962-5.136 0-11.65-.18-11.65 5.698 0 10.704 29.237 2.188 29.237 24.575 0 14.247-12.377 18.544-23.862 18.544m-58.587-11.036h-6.76V80.756h7.492c7.005 0 18.16 2.381 18.16 17.835 0 13.644-7.328 19.041-18.892 19.041m2.036-47.086H35.48v57.217h24.516c6.351 0 29.4-4.07 29.4-28.722 0-23.594-15.717-28.495-31.11-28.495"/>
</svg>